# xmcd
#
# Track frame offsets: 
#        150
#        14531
#        30157
#        49943
#        68138
#        82824
#        96338
#        112534
#        126376
#        140197
#        156687
#        171223
#        187023
#        199956
#        216631
#        239700
#
# Disc length: 3515 seconds
#
# Revision: 0
# Processed by: cddbd v1.5.2PL0 Copyright (c) Steve Scherf et al.
# Submitted via: ExactAudioCopyFreeDBPlugin 1.0
#
DISCID=f20db910
DTITLE=JC and Angelina Grimshaw - Broken Hearted Blues
DYEAR=2005
DGENRE=Blues
TTITLE0=Goin' Away
TTITLE1=Ache For You
TTITLE2=Love Song Walking
TTITLE3=Broken Hearted Blues
TTITLE4=Advertise Your Love
TTITLE5=Take It Right Away
TTITLE6=Gladston
TTITLE7=Hurry Home Blues
TTITLE8=Fallen Down
TTITLE9=You Got Me Dreaming
TTITLE10=Far From Me
TTITLE11=S.O.S.
TTITLE12=Mountain Hollering
TTITLE13=Old Jack Lightning
TTITLE14=Dance When You're Living
TTITLE15=Show Some Kindness
EXTD=
EXTT0=
EXTT1=
EXTT2=
EXTT3=
EXTT4=
EXTT5=
EXTT6=
EXTT7=
EXTT8=
EXTT9=
EXTT10=
EXTT11=
EXTT12=
EXTT13=
EXTT14=
EXTT15=
PLAYORDER=
